<svg class="main-svg" xmlns="http://www.w3.org/2000/svg" xmlns:xlink="http://www.w3.org/1999/xlink" width="700" height="450" style="" viewBox="0 0 700 450"><rect x="0" y="0" width="700" height="450" style="fill: rgb(255, 255, 255); fill-opacity: 1;"/><defs id="defs-f337c1"><g class="clips"><clipPath id="clipf337c1xyplot" class="plotclip"><rect width="431" height="270"/></clipPath><clipPath class="axesclip" id="clipf337c1x"><rect x="80" y="0" width="431" height="450"/></clipPath><clipPath class="axesclip" id="clipf337c1y"><rect x="0" y="100" width="700" height="270"/></clipPath><clipPath class="axesclip" id="clipf337c1xy"><rect x="80" y="100" width="431" height="270"/></clipPath></g><g class="gradients"/></defs><g class="bglayer"><rect class="bg" x="80" y="100" width="431" height="270" style="fill: rgb(229, 236, 246); fill-opacity: 1; stroke-width: 0;"/></g><g class="layer-below"><g class="imagelayer"/><g class="shapelayer"/></g><g class="cartesianlayer"><g class="subplot xy"><g class="layer-subplot"><g class="shapelayer"/><g class="imagelayer"/></g><g class="gridlayer"><g class="x"><path class="xgrid crisp" transform="translate(84.25,0)" d="M0,100v270" style="stroke: rgb(255, 255, 255); stroke-opacity: 1; stroke-width: 1px;"/><path class="xgrid crisp" transform="translate(169.39,0)" d="M0,100v270" style="stroke: rgb(255, 255, 255); stroke-opacity: 1; stroke-width: 1px;"/><path class="xgrid crisp" transform="translate(254.53,0)" d="M0,100v270" style="stroke: rgb(255, 255, 255); stroke-opacity: 1; stroke-width: 1px;"/><path class="xgrid crisp" transform="translate(339.67,0)" d="M0,100v270" style="stroke: rgb(255, 255, 255); stroke-opacity: 1; stroke-width: 1px;"/><path class="xgrid crisp" transform="translate(424.8,0)" d="M0,100v270" style="stroke: rgb(255, 255, 255); stroke-opacity: 1; stroke-width: 1px;"/><path class="xgrid crisp" transform="translate(509.94,0)" d="M0,100v270" style="stroke: rgb(255, 255, 255); stroke-opacity: 1; stroke-width: 1px;"/></g><g class="y"><path class="ygrid crisp" transform="translate(0,278.36)" d="M80,0h431" style="stroke: rgb(255, 255, 255); stroke-opacity: 1; stroke-width: 1px;"/><path class="ygrid crisp" transform="translate(0,205.42000000000002)" d="M80,0h431" style="stroke: rgb(255, 255, 255); stroke-opacity: 1; stroke-width: 1px;"/><path class="ygrid crisp" transform="translate(0,132.47)" d="M80,0h431" style="stroke: rgb(255, 255, 255); stroke-opacity: 1; stroke-width: 1px;"/></g></g><g class="zerolinelayer"><path class="yzl zl crisp" transform="translate(0,351.31)" d="M80,0h431" style="stroke: rgb(255, 255, 255); stroke-opacity: 1; stroke-width: 2px;"/></g><path class="xlines-below"/><path class="ylines-below"/><g class="overlines-below"/><g class="xaxislayer-below"/><g class="yaxislayer-below"/><g class="overaxes-below"/><g class="plot" transform="translate(80, 100)" clip-path="url('#clipf337c1xyplot')"><g class="scatterlayer mlayer"><g class="trace scatter trace600826" style="stroke-miterlimit: 2; opacity: 1;"><g class="fills"/><g class="errorbars"/><g class="lines"><path class="js-line" d="M174.53,230.04L178.79,235.69L183.05,233.82L191.56,232.65L195.82,228.19L200.08,207.32L204.33,210.86L208.58,188.99L212.85,171.62L217.1,166.13L221.36,188.68L225.61,203.57L229.88,161.18L234.13,90.03L238.38,117.92L242.64,167.5L246.9,156.45L251.16,139.98L255.41,87.11L259.67,53.63L263.93,100.53L268.18,161.86L272.44,204.44L276.69,188.57L280.96,199.58L285.21,223.62L289.47,197.85L293.72,191.82L297.99,180.89L302.24,172.56L306.49,189.53L310.75,207.12L315.01,208.25L319.27,213.27L323.52,210.38L327.77,208.55L332.04,217.21L336.29,228.67L340.55,219.39L344.8,202.05L349.07,210.08L353.32,228.17L357.58,218.19L361.83,212.25L366.1,201.81L370.35,204.25L374.6,209.69L378.86,195.3L383.12,256.5L387.38,227.38L391.63,205.26L395.88,221.12L400.15,229.94L404.4,227.64L408.66,249.58L412.91,232.91L417.18,220.23L421.43,215.68L425.69,224.87" style="vector-effect: non-scaling-stroke; fill: none; stroke: rgb(99, 110, 250); stroke-opacity: 1; stroke-width: 2px; opacity: 1;"/></g><g class="points"/><g class="text"/></g><g class="trace scatter trace88642a" style="stroke-miterlimit: 2; opacity: 1;"><g class="fills"/><g class="errorbars"/><g class="lines"><path class="js-line" d="M123.45,201.71L124.15,192.95L124.51,194.41L124.86,200.25L125.93,194.41L126.29,195.87L126.64,197.33L127.35,192.95L127.71,188.58L130.18,152.1L130.54,155.02L130.89,136.05L131.25,157.94L131.6,155.02L131.97,156.48L132.33,157.94L132.65,159.4L133.01,166.69L135.51,190.04L135.86,188.58L137.27,206.08L137.62,207.54L137.98,204.63L138.33,206.08L138.69,206.08L139.76,200.25L140.11,206.08L140.47,204.63L140.83,206.08L141.17,209L141.53,209L141.88,207.54L142.24,207.54L142.59,204.63L142.96,201.71L143.32,206.08L144.38,211.92L144.74,209L145.43,213.38L145.79,211.92L146.5,214.84L146.85,213.38L147.92,206.08L148.28,200.25L149.68,168.15L150.04,165.23L150.39,165.23L150.75,169.61L151.82,162.32L152.17,168.15L153.93,184.2L154.3,182.74L155.36,192.95L155.72,190.04L156.08,191.49L156.43,188.58L157.86,194.41L158.2,190.04L158.56,192.95L158.91,188.58L159.27,188.58L159.62,187.12L160.69,194.41L161.06,188.58L162.13,194.41L162.45,197.33L163.53,188.58L163.88,190.04L164.24,191.49L166.02,166.69L166.38,157.94L167.42,143.35L167.78,144.81L168.13,141.89L168.49,143.35L168.85,147.73L170.27,163.77L170.64,165.23L172.03,178.36L172.38,176.91L173.11,171.07L173.46,168.15L173.82,166.69L174.17,173.99L174.53,175.45L174.89,181.28L175.23,172.53L175.59,175.45L175.94,176.91L177.01,169.61L177.37,171.07L178.43,155.02L178.79,155.02L179.84,149.18L180.19,147.73L183.41,171.07L183.74,169.61L184.1,169.61L184.45,171.07L184.81,171.07L185.16,172.53L185.52,168.15L185.88,169.61L186.23,172.53L187.3,168.15L187.66,165.23L188.35,168.15L188.7,165.23L189.77,172.53L190.13,171.07L190.48,171.07L190.84,168.15L191.92,172.53L192.25,172.53L193.68,179.82L194.04,178.36L194.4,176.91L194.75,176.91L195.11,181.28L196.18,176.91L196.51,182.74L196.87,181.28L197.22,184.2L197.58,184.2L197.93,187.12L198.29,187.12L198.65,188.58L201.12,195.87L201.47,194.41L202.91,197.33L203.26,197.33L203.62,198.79L203.97,195.87L204.33,194.41L204.69,195.87L205.02,195.87L205.73,195.87L206.09,194.41L207.16,195.87L207.51,192.95L209.99,200.25L210.35,197.33L210.7,197.33L211.07,200.25L212.14,201.71L212.49,201.71L214.25,201.71L214.61,200.25L215.32,200.25L215.68,197.33L216.03,197.33L216.39,200.25L216.74,200.25L217.1,194.41L218.86,179.82L219.21,178.36L220.28,171.07L220.65,165.23L221,162.32L221.36,165.23L221.72,165.23L222.04,163.77L222.41,165.23L222.76,165.23L223.12,165.23L223.47,163.77L223.83,162.32L224.19,163.77L224.54,166.69L225.25,163.77L225.61,166.69L226.67,168.15L227.02,168.15L227.38,168.15L227.73,169.61L228.09,169.61L228.45,171.07L228.8,169.61L229.17,173.99L230.56,179.82L230.92,178.36L232.35,181.28L232.71,181.28L233.06,184.2L233.42,181.28L233.77,179.82L234.49,175.45L234.82,176.91L235.18,176.91L235.53,176.91L235.89,172.53L236.6,171.07L236.96,165.23L237.31,163.77L237.67,155.02L239.43,122.92L239.78,120.01L241.57,128.76L241.93,130.22L242.64,136.05L243,138.97L244.05,143.35L244.41,140.43L245.12,137.51L245.48,140.43L246.54,137.51L246.9,141.89L247.26,140.43L247.59,143.35L249.01,150.64L249.37,149.18L251.16,157.94L251.52,159.4L251.84,159.4L252.21,162.32L252.92,165.23L253.27,160.86L254.34,166.69L254.7,165.23L255.05,163.77L255.41,165.23L255.77,165.23L256.81,169.61L257.17,168.15L257.52,168.15L258.59,163.77L258.95,165.23L260.36,159.4L260.73,150.64L261.79,137.51L262.15,138.97L263.57,146.27L263.93,141.89L264.98,146.27L265.33,141.89L265.69,141.89L266.04,146.27L271.37,99.58L271.73,93.74L272.08,93.74L272.44,99.58L272.8,99.58L273.13,101.04L274.2,103.96L274.55,114.17L274.91,112.71L275.27,117.09L277.05,137.51L277.39,137.51L278.1,143.35L278.46,146.27L279.18,141.89L279.54,144.81L279.89,143.35L280.25,146.27L280.96,144.81L281.32,146.27L281.65,146.27L282.01,144.81L282.36,146.27L282.72,143.35L283.07,143.35L283.43,147.73L284.14,147.73L284.5,149.18L284.85,149.18L285.21,153.56L285.9,146.27L286.26,147.73L286.97,146.27L287.32,149.18L287.68,150.64L288.04,149.18L288.39,149.18L289.83,155.02L290.15,155.02L291.23,160.86L291.58,162.32L293.72,168.15L294.08,168.15L294.42,168.15L294.78,172.53L295.13,169.61L295.49,172.53L295.84,172.53L296.2,169.61L296.56,172.53L296.91,172.53L297.62,173.99L297.99,172.53L298.67,178.36L299.03,175.45L299.38,175.45L299.75,173.99L300.1,175.45L300.46,175.45L301.88,172.53L302.24,172.53L302.93,175.45L303.29,172.53L303.64,172.53L304,175.45L305.78,160.86L306.13,159.4L308.25,150.64L308.6,152.1L311.45,143.35L311.81,143.35L312.52,137.51L312.87,138.97L313.23,140.43L313.59,140.43L313.94,144.81L314.65,143.35L315.01,144.81L315.7,149.18L316.06,147.73L316.41,147.73L318.91,156.48L319.27,155.02L319.63,155.02L319.95,156.48L323.16,171.07L323.52,169.61L324.21,172.53L324.57,166.69L325.28,169.61L325.63,168.15L325.99,168.15L326.35,169.61L326.7,171.07L327.06,169.61L327.41,169.61L327.77,169.61L328.14,171.07L328.47,171.07L328.84,169.61L329.19,169.61L329.55,173.99L329.9,171.07L330.26,176.91L331.68,172.53L332.04,173.99L334.51,181.28L334.87,179.82L335.58,184.2L335.93,182.74L336.29,184.2L336.66,184.2L336.98,182.74L337.34,188.58L337.69,187.12L338.05,185.66L338.77,185.66L339.13,184.2L340.55,188.58L340.91,187.12L341.95,190.04L342.31,188.58L342.66,188.58L343.02,190.04L343.38,190.04L343.73,191.49L344.09,191.49L344.44,192.95L344.8,192.95L345.16,191.49L345.86,195.87L346.21,192.95L346.92,192.95L347.28,191.49L348.36,194.41L348.71,194.41L349.76,188.58L350.12,187.12L350.47,188.58L350.83,185.66L351.9,178.36L352.25,173.99L353.68,168.15L354.01,168.15L354.37,165.23L354.72,166.69L355.08,166.69L355.43,166.69L355.79,168.15L356.5,168.15L356.86,165.23L357.21,163.77L357.58,166.69L359.34,159.4L359.69,160.86L360.05,162.32L360.41,162.32L360.76,163.77L362.19,169.61L362.53,166.69L363.6,169.61L363.95,171.07L364.67,172.53L365.02,171.07L366.1,173.99L366.46,172.53L367.49,176.91L367.86,178.36L368.2,178.36L368.57,179.82L369.64,178.36L369.99,179.82L371.04,182.74L371.4,182.74L372.11,184.2L372.46,182.74L372.82,182.74L373.18,185.66L374.24,187.12L374.6,184.2L376,187.12L376.36,184.2L377.44,182.74L377.78,182.74L378.15,182.74L378.5,178.36L378.86,178.36L379.22,179.82L382.41,152.1L382.76,144.81L384.88,112.71L385.23,112.71L386.3,105.42L386.67,106.87L387.02,106.87L387.74,108.33L388.06,106.87L388.43,106.87L388.78,111.25L389.49,114.17L389.85,112.71L390.21,112.71L390.56,114.17L390.92,108.33L391.27,115.63L392.32,120.01L392.68,118.55L393.74,120.01L394.1,120.01L394.46,120.01L394.81,122.92L396.58,131.68L396.95,131.68L398.01,131.68L398.37,133.14L399.44,138.97L399.79,136.05L400.15,134.59L400.51,138.97L401.55,141.89L401.91,141.89L402.98,146.27L403.33,146.27L404.4,155.02L404.77,153.56L405.09,153.56L405.45,160.86L405.8,159.4L406.16,162.32L406.51,160.86L406.87,162.32L407.24,165.23L408.3,169.61L408.66,168.15L409.71,172.53L410.06,169.61L411.49,178.36L411.84,178.36L412.2,176.91L412.55,178.36L412.91,179.82L413.27,179.82L413.61,178.36L413.97,178.36L414.32,181.28L415.76,178.36L416.11,179.82L417.18,182.74L417.54,184.2L418.58,187.12L418.94,188.58L419.29,188.58L419.65,187.12L420.36,191.49L420.72,190.04L421.07,191.49L421.79,191.49L422.12,192.95L422.48,192.95L422.83,195.87L423.19,192.95L423.54,195.87L423.9,195.87L424.97,197.33L425.32,194.41L425.69,192.95L426.05,195.87L426.37,195.87L426.73,198.79L427.08,198.79L427.45,197.33L428.16,197.33L428.52,200.25L428.87,198.79L429.23,200.25L429.58,200.25L429.94,198.79L430.3,200.25L430.64,187.12L431,36.84" style="vector-effect: non-scaling-stroke; fill: none; stroke: rgb(239, 85, 59); stroke-opacity: 1; stroke-width: 2px; opacity: 1;"/></g><g class="points"/><g class="text"/></g><g class="trace scatter tracea5dbc5" style="stroke-miterlimit: 2; opacity: 1;"><g class="fills"/><g class="errorbars"/><g class="lines"><path class="js-line" d="M63.86,240.81L64.22,242.27L64.54,247.81L65.62,249.12L65.97,249.12L67.04,247.37L67.4,247.67L67.75,247.96L69.51,249.12L69.87,249.12L75.21,248.98L75.56,249.42L76.27,249.56L76.63,248.83L76.99,249.12L77.32,245.77L77.68,243.14L78.03,245.33L78.39,246.06L78.74,247.23L79.1,247.08L79.46,246.79L80.88,249.85L81.24,250.15L84.43,250.73L84.78,250.87L87.61,250.58L87.97,249.27L89.03,250.73L89.39,251.17L90.8,250.44L91.16,249.85L92.23,250.58L92.58,251.02L94.02,250.73L94.34,249.71L95.77,249.56L96.13,249.42L96.84,250L97.2,247.23L97.55,246.5L97.91,247.37L98.27,247.67L98.6,247.67L98.96,246.64L100.02,245.77L100.38,245.77L120.95,245.77L121.3,241.68L123.08,237.45L123.45,237.16L124.51,236.72L124.86,236.72L125.57,236.72L125.93,235.85L128.07,234.24L128.4,234.24L129.47,234.24L129.82,236.43L131.6,235.26L131.97,235.7L133.36,234.39L133.73,234.53L134.44,233.8L134.8,232.35L136.91,230.89L137.27,229.87L137.62,228.7L137.98,230.16L139.05,227.53L139.4,228.84L139.76,228.55L140.11,226.07L140.83,228.84L141.17,228.11L141.53,228.41L142.96,224.61L143.32,226.36L144.03,224.32L144.38,220.82L144.74,222.72L145.1,222.57L145.43,221.99L145.79,219.36L146.14,219.8L146.5,220.53L147.21,221.55L147.57,225.2L147.92,231.18L148.28,230.3L148.63,227.97L149.35,237.16L149.68,236.29L150.04,237.16L150.75,241.98L151.1,240.81L151.46,237.89L151.82,236.58L152.17,237.01L152.54,237.74L153.25,233.51L153.61,234.24L153.93,232.64L154.3,228.11L154.65,230.16L155.01,230.74L157.14,214.25L157.5,216.15L158.2,218.49L158.56,213.38L158.91,213.23L159.27,214.98L159.62,217.61L159.98,213.38L161.41,204.48L161.77,205.94L163.16,206.67L163.53,203.31L163.88,205.21L164.24,202.15L164.95,199.08L165.31,203.02L166.02,215.71L166.38,228.99L167.78,239.2L168.13,238.04L169.56,212.36L169.91,210.9L170.27,210.17L170.64,211.92L171.32,208.27L171.67,209.88L172.03,204.48L172.38,204.63L172.74,202L173.82,190.77L174.17,185.8L174.89,193.54L175.23,203.02L175.59,204.19L175.94,203.31L176.3,215.42L177.01,217.76L177.37,215.13L178.43,218.49L178.79,218.63L179.16,216.01L179.48,216.44L179.84,217.9L180.55,217.32L180.9,218.63L181.26,216.44L181.63,218.05L181.98,217.76L183.41,211.48L183.74,211.63L184.81,211.48L185.16,208.71L186.23,211.34L186.59,210.02L187.66,208.71L187.99,209.15L188.35,209L189.06,207.69L189.41,204.92L190.84,199.96L191.19,199.96L192.25,199.67L192.62,200.69L194.4,199.81L194.75,199.23L196.51,193.98L196.87,193.98L197.58,195.87L197.93,195.29L198.29,195.29L199.36,191.64L199.71,187.41L200.44,183.47L200.76,184.35L201.12,183.91L201.47,183.62L201.83,185.66L202.91,172.97L203.26,173.26L203.62,173.7L206.09,199.67L206.44,189.89L207.16,186.83L207.51,184.78L209.99,168.73L210.35,170.78L211.07,177.05L211.43,175.59L211.78,173.26L212.14,171.8L212.49,164.36L212.85,161.73L213.21,162.02L213.54,163.48L213.9,162.17L214.25,163.19L214.61,157.35L215.68,147.87L216.03,149.18L217.1,136.49L217.46,147.29L218.15,156.33L218.5,151.52L220.28,165.09L220.65,174.28L222.04,202L222.41,195L223.12,182.01L223.47,172.53L225.61,202L225.97,204.63L226.31,196.89L227.02,197.48L227.38,194.27L228.09,192.66L228.45,183.32L229.17,181.57L229.51,177.34L231.64,146.41L231.99,134.45L232.35,124.82L232.71,130.36L233.06,145.97L233.42,137.08L234.13,137.95L234.49,147.43L235.18,129.78L235.53,131.24L235.89,136.05L236.24,141.16L236.6,120.59L238.38,159.98L238.75,171.07L239.07,171.22L239.43,169.46L239.78,175.01L240.14,173.4L240.49,161.88L240.85,157.35L241.22,157.65L241.57,164.36L242.64,180.26L243,180.11L243.34,178.36L243.7,180.41L244.05,175.45L244.41,172.38L244.76,175.01L245.12,176.32L245.83,179.53L246.19,182.01L246.54,187.85L246.9,183.91L247.26,183.18L247.95,185.08L248.3,178.95L249.01,175.59L249.37,171.22L250.09,161.44L250.45,162.32L250.8,162.75L251.52,157.21L251.84,159.54L252.21,159.54L252.56,157.79L254.7,125.26L255.05,118.84L256.1,113L256.46,113.29L256.81,111.11L257.17,119.13L257.88,112.42L258.24,101.62L259.3,75.65L259.67,76.24L260.36,29.55L260.73,58.73L261.44,148.16L261.79,133.72L262.15,118.11L263.57,25.32L263.93,32.17L264.29,35.53L264.62,56.39L264.98,51.58L265.33,13.5L265.69,36.41L266.04,33.2L266.4,25.03L267.11,53.77L267.47,92.87L267.82,93.01L268.18,72.15L268.55,54.64L268.87,66.31L269.23,66.02L270.29,85.72L270.66,124.67L271.37,138.83L271.73,133.57L272.44,136.64L272.8,132.99L273.13,129.49L273.49,131.53L273.84,131.82L274.91,115.04L275.27,120.01L275.62,125.26L275.98,123.51L276.33,120.01L276.69,121.46L277.05,118.69L278.1,107.9L278.46,107.31L279.18,98.56L279.54,100.02L279.89,109.21L280.96,138.1L281.32,130.66L281.65,127.01L282.01,135.32L282.72,149.91L283.07,148.02L283.43,147.14L283.79,147.73L284.14,146.85L284.5,145.68L284.85,147.73L285.57,148.31L285.9,155.6L286.26,162.9L286.61,161.59L286.97,160.71L288.39,175.74L288.76,173.26L289.83,169.76L290.15,169.76L291.58,168.3L291.94,163.19L292.3,157.94L292.65,161.88L293.01,168.3L293.72,166.55L294.08,168.73L294.42,168.15L294.78,165.09L297.62,133.57L297.99,130.66L298.67,122.63L299.03,125.11L299.38,128.32L300.82,138.24L301.17,139.85L301.53,139.12L301.88,139.99L302.24,139.85L302.93,136.05L303.29,137.95L304.35,140.14L304.71,142.62L305.78,148.31L306.13,152.98L307.54,168.88L307.89,171.65L308.6,169.9L308.96,173.55L309.68,178.51L310.04,184.78L310.75,195.87L311.11,195.29L311.45,192.37L313.59,208.86L313.94,209.59L314.65,204.33L315.01,207.54L316.06,209.44L316.41,208.13L316.77,206.52L317.12,206.96L317.48,207.25L317.85,208.27L318.19,207.25L318.56,206.08L319.27,207.84L319.63,203.9L321.74,185.95L322.1,183.91L323.88,167.13L324.21,167.71L326.7,174.28L327.06,173.11L328.14,180.84L328.47,178.95L328.84,179.09L329.19,178.07L329.9,176.18L330.26,177.63L330.62,177.05L330.97,178.51L331.33,177.93L331.68,179.68L333.09,176.03L333.44,177.63L333.8,179.39L334.15,177.63L334.51,176.32L334.87,179.09L335.22,178.8L335.58,176.32L335.93,176.03L336.29,177.78L336.66,177.05L336.98,177.93L337.34,179.09L337.69,178.36L338.05,178.66L338.4,178.95L338.77,179.82L339.13,184.05L339.48,193.54L339.84,186.97L340.19,187.26L340.55,187.99L340.91,186.53L341.24,186.53L341.6,188.72L343.02,182.45L343.38,183.03L346.21,166.84L346.57,168.3L347.28,162.46L347.65,163.77L348,162.17L348.36,161.29L348.71,167.13L350.47,198.5L350.83,200.39L351.18,200.1L351.54,202.29L352.96,226.66L353.32,227.24L354.01,225.2L354.37,226.36L354.72,226.07L356.5,228.26L356.86,233.37L358.26,234.83L358.62,234.83L359.69,238.18L360.05,237.45L361.83,238.47L362.19,237.74L362.89,237.6L363.24,236.43L365.38,221.11L365.73,219.36L369.99,194.56L370.35,189.45L372.11,181.43L372.46,179.09L372.82,178.95L373.18,181.14L373.89,179.24L374.24,180.55L374.96,177.93L375.29,179.24L376.36,184.05L376.71,180.99L378.5,207.54L378.86,211.19L379.56,232.93L379.92,232.49L380.27,226.07L380.63,224.18L380.98,227.53L381.34,226.22L381.7,234.83L382.76,250.87L383.12,249.42L383.48,246.94L384.17,248.98L384.52,248.69L384.88,248.69L385.59,248.83L385.95,249.56L387.02,250.58L387.38,250.44L388.78,248.98L389.14,249.56L390.21,249.12L390.56,249.42L391.99,249.42L392.32,249.85L393.39,250.73L393.74,250.73L395.17,251.17L395.52,251.17L397.29,250L397.66,250L399.44,250L399.79,250.29L401.2,250.44L401.55,250.73L402.62,250.73L402.98,251.02L404.04,250.29L404.4,250.73L406.16,250.73L406.51,250.87L411.84,251.02L412.2,249.56L413.27,246.79L413.61,247.08L413.97,247.96L414.32,247.37L414.68,247.37L416.11,246.5L416.47,244.75L417.54,243.73L417.87,240.52L419.29,235.7L419.65,236.58L420.01,236.29L420.36,235.7L420.72,233.37L425.32,216.74L425.69,216.74L426.73,216.59L427.08,217.03L429.23,228.84L429.58,228.84L430.3,229.14L430.64,247.08L431,249.27" style="vector-effect: non-scaling-stroke; fill: none; stroke: rgb(0, 204, 150); stroke-opacity: 1; stroke-width: 2px; opacity: 1;"/></g><g class="points"/><g class="text"/></g></g></g><g class="overplot"/><path class="xlines-above crisp" style="fill: none;" d="M0,0"/><path class="ylines-above crisp" style="fill: none;" d="M0,0"/><g class="overlines-above"/><g class="xaxislayer-above"><g class="xtick"><text text-anchor="middle" x="0" y="383" transform="translate(84.25,0)" style="font-family: 'Open Sans', verdana, arial, sans-serif; font-size: 12px; fill: rgb(42, 63, 95); fill-opacity: 1; white-space: pre;">1920</text></g><g class="xtick"><text text-anchor="middle" x="0" y="383" transform="translate(169.39,0)" style="font-family: 'Open Sans', verdana, arial, sans-serif; font-size: 12px; fill: rgb(42, 63, 95); fill-opacity: 1; white-space: pre;">1940</text></g><g class="xtick"><text text-anchor="middle" x="0" y="383" transform="translate(254.53,0)" style="font-family: 'Open Sans', verdana, arial, sans-serif; font-size: 12px; fill: rgb(42, 63, 95); fill-opacity: 1; white-space: pre;">1960</text></g><g class="xtick"><text text-anchor="middle" x="0" y="383" transform="translate(339.67,0)" style="font-family: 'Open Sans', verdana, arial, sans-serif; font-size: 12px; fill: rgb(42, 63, 95); fill-opacity: 1; white-space: pre;">1980</text></g><g class="xtick"><text text-anchor="middle" x="0" y="383" transform="translate(424.8,0)" style="font-family: 'Open Sans', verdana, arial, sans-serif; font-size: 12px; fill: rgb(42, 63, 95); fill-opacity: 1; white-space: pre;">2000</text></g><g class="xtick"><text text-anchor="middle" x="0" y="383" transform="translate(509.94,0)" style="font-family: 'Open Sans', verdana, arial, sans-serif; font-size: 12px; fill: rgb(42, 63, 95); fill-opacity: 1; white-space: pre;">2020</text></g></g><g class="yaxislayer-above"><g class="ytick"><text text-anchor="end" x="79" y="4.199999999999999" transform="translate(0,351.31)" style="font-family: 'Open Sans', verdana, arial, sans-serif; font-size: 12px; fill: rgb(42, 63, 95); fill-opacity: 1; white-space: pre;">0</text></g><g class="ytick"><text text-anchor="end" x="79" y="4.199999999999999" transform="translate(0,278.36)" style="font-family: 'Open Sans', verdana, arial, sans-serif; font-size: 12px; fill: rgb(42, 63, 95); fill-opacity: 1; white-space: pre;">5</text></g><g class="ytick"><text text-anchor="end" x="79" y="4.199999999999999" transform="translate(0,205.42000000000002)" style="font-family: 'Open Sans', verdana, arial, sans-serif; font-size: 12px; fill: rgb(42, 63, 95); fill-opacity: 1; white-space: pre;">10</text></g><g class="ytick"><text text-anchor="end" x="79" y="4.199999999999999" transform="translate(0,132.47)" style="font-family: 'Open Sans', verdana, arial, sans-serif; font-size: 12px; fill: rgb(42, 63, 95); fill-opacity: 1; white-space: pre;">15</text></g></g><g class="overaxes-above"/></g></g><g class="polarlayer"/><g class="ternarylayer"/><g class="geolayer"/><g class="funnelarealayer"/><g class="pielayer"/><g class="treemaplayer"/><g class="sunburstlayer"/><g class="glimages"/><defs id="topdefs-f337c1"><g class="clips"/><clipPath id="legendf337c1"><rect width="168" height="67" x="0" y="0"/></clipPath></defs><g class="layer-above"><g class="imagelayer"/><g class="shapelayer"/></g><g class="infolayer"><g class="legend" pointer-events="all" transform="translate(519.62, 100)"><rect class="bg" shape-rendering="crispEdges" style="stroke: rgb(68, 68, 68); stroke-opacity: 1; fill: rgb(255, 255, 255); fill-opacity: 1; stroke-width: 0px;" width="168" height="67" x="0" y="0"/><g class="scrollbox" transform="translate(0, 0)" clip-path="url('#legendf337c1')"><g class="groups"><g class="traces" style="opacity: 1;" transform="translate(0, 14.5)"><text class="legendtext user-select-none" text-anchor="start" x="40" y="4.680000000000001" style="font-family: 'Open Sans', verdana, arial, sans-serif; font-size: 12px; fill: rgb(42, 63, 95); fill-opacity: 1; white-space: pre;">Inflation Rate</text><g class="layers" style="opacity: 1;"><g class="legendfill"/><g class="legendlines"><path class="js-line" d="M5,0h30" style="fill: none; stroke: rgb(99, 110, 250); stroke-opacity: 1; stroke-width: 2px;"/></g><g class="legendsymbols"><g class="legendpoints"/></g></g><rect class="legendtoggle" pointer-events="all" x="0" y="-9.5" width="162.828125" height="19" style="cursor: pointer; fill: rgb(0, 0, 0); fill-opacity: 0;"/></g><g class="traces" style="opacity: 1;" transform="translate(0, 33.5)"><text class="legendtext user-select-none" text-anchor="start" x="40" y="4.680000000000001" style="font-family: 'Open Sans', verdana, arial, sans-serif; font-size: 12px; fill: rgb(42, 63, 95); fill-opacity: 1; white-space: pre;">Unemployment Rate</text><g class="layers" style="opacity: 1;"><g class="legendfill"/><g class="legendlines"><path class="js-line" d="M5,0h30" style="fill: none; stroke: rgb(239, 85, 59); stroke-opacity: 1; stroke-width: 2px;"/></g><g class="legendsymbols"><g class="legendpoints"/></g></g><rect class="legendtoggle" pointer-events="all" x="0" y="-9.5" width="162.828125" height="19" style="cursor: pointer; fill: rgb(0, 0, 0); fill-opacity: 0;"/></g><g class="traces" style="opacity: 1;" transform="translate(0, 52.5)"><text class="legendtext user-select-none" text-anchor="start" x="40" y="4.680000000000001" style="font-family: 'Open Sans', verdana, arial, sans-serif; font-size: 12px; fill: rgb(42, 63, 95); fill-opacity: 1; white-space: pre;">3 Mo. T-Bill Rate</text><g class="layers" style="opacity: 1;"><g class="legendfill"/><g class="legendlines"><path class="js-line" d="M5,0h30" style="fill: none; stroke: rgb(0, 204, 150); stroke-opacity: 1; stroke-width: 2px;"/></g><g class="legendsymbols"><g class="legendpoints"/></g></g><rect class="legendtoggle" pointer-events="all" x="0" y="-9.5" width="162.828125" height="19" style="cursor: pointer; fill: rgb(0, 0, 0); fill-opacity: 0;"/></g></g></g><rect class="scrollbar" rx="20" ry="3" width="0" height="0" style="fill: rgb(128, 139, 164); fill-opacity: 1;" x="0" y="0"/></g><g class="g-gtitle"/><g class="g-xtitle"/><g class="g-ytitle"/></g></svg>